<svg width="16" height="16" viewBox="0 0 16 16" fill="none" xmlns="http://www.w3.org/2000/svg">
  <path fill-rule="evenodd" clip-rule="evenodd"
    d="M8 5.57164C7.24224 5.57164 6.51551 5.87266 5.9797 6.40848C5.44388 6.9443 5.14286 7.67102 5.14286 8.42878C5.14286 9.18655 5.44388 9.91327 5.9797 10.4491C6.51551 10.9849 7.24224 11.2859 8 11.2859C8.75776 11.2859 9.48449 10.9849 10.0203 10.4491C10.5561 9.91327 10.8571 9.18655 10.8571 8.42878C10.8571 7.67102 10.5561 6.9443 10.0203 6.40848C9.48449 5.87266 8.75776 5.57164 8 5.57164Z"
    fill="#428069" />
  <path fill-rule="evenodd" clip-rule="evenodd"
    d="M5.97638 1.05431C7.32449 0.981898 8.67551 0.981898 10.0236 1.05431C10.7604 1.09393 11.4179 1.50002 11.8004 2.11335L12.4259 3.11678C12.6088 3.40859 12.9173 3.60669 13.2716 3.65774C13.5657 3.69888 13.8583 3.74383 14.1493 3.79259C15.2404 3.97469 16 4.93012 16 6.00897V12.4288C16 13.035 15.7592 13.6164 15.3305 14.045C14.9019 14.4737 14.3205 14.7145 13.7143 14.7145H2.28571C1.67951 14.7145 1.09812 14.4737 0.66947 14.045C0.240816 13.6164 0 13.035 0 12.4288V6.00897C0 4.93012 0.759619 3.97469 1.85067 3.79259C2.14171 3.74383 2.43429 3.69888 2.72762 3.65697C2.89952 3.63397 3.06429 3.57362 3.21039 3.48017C3.35649 3.38672 3.48037 3.26243 3.57333 3.11602L4.19962 2.11412C4.38895 1.80787 4.64927 1.55174 4.95854 1.3674C5.26781 1.18305 5.61694 1.07516 5.97638 1.05431ZM4 8.42878C4 7.36792 4.42143 6.3505 5.17157 5.60036C5.92172 4.85021 6.93913 4.42878 8 4.42878C9.06087 4.42878 10.0783 4.85021 10.8284 5.60036C11.5786 6.3505 12 7.36792 12 8.42878C12 9.48965 11.5786 10.5071 10.8284 11.2572C10.0783 12.0074 9.06087 12.4288 8 12.4288C6.93913 12.4288 5.92172 12.0074 5.17157 11.2572C4.42143 10.5071 4 9.48965 4 8.42878ZM13.1429 7.28593C13.2944 7.28593 13.4398 7.22572 13.5469 7.11856C13.6541 7.0114 13.7143 6.86605 13.7143 6.7145C13.7143 6.56295 13.6541 6.4176 13.5469 6.31044C13.4398 6.20327 13.2944 6.14307 13.1429 6.14307C12.9913 6.14307 12.846 6.20327 12.7388 6.31044C12.6316 6.4176 12.5714 6.56295 12.5714 6.7145C12.5714 6.86605 12.6316 7.0114 12.7388 7.11856C12.846 7.22572 12.9913 7.28593 13.1429 7.28593Z"
    fill="#428069" />
</svg>