<svg width="240" height="240" viewBox="0 0 240 240" fill="none" xmlns="http://www.w3.org/2000/svg">
<g id="icons/">
<rect width="240" height="240" fill="white"/>
<g id="Vector">
<path fill-rule="evenodd" clip-rule="evenodd" d="M120 98C112.707 98 105.712 100.897 100.555 106.055C95.3973 111.212 92.5 118.207 92.5 125.5C92.5 132.793 95.3973 139.788 100.555 144.945C105.712 150.103 112.707 153 120 153C127.293 153 134.288 150.103 139.445 144.945C144.603 139.788 147.5 132.793 147.5 125.5C147.5 118.207 144.603 111.212 139.445 106.055C134.288 100.897 127.293 98 120 98Z" fill="#428069"/>
<path fill-rule="evenodd" clip-rule="evenodd" d="M100.523 54.5207C113.498 53.8237 126.502 53.8237 139.477 54.5207C146.569 54.902 152.897 58.8107 156.579 64.714L162.599 74.372C164.359 77.1807 167.329 79.0874 170.739 79.5787C173.57 79.9747 176.386 80.4074 179.187 80.8767C189.689 82.6294 197 91.8254 197 102.209V164C197 169.835 194.682 175.431 190.556 179.556C186.431 183.682 180.835 186 175 186H65C59.1652 186 53.5695 183.682 49.4437 179.556C45.3179 175.431 43 169.835 43 164V102.209C43 91.8254 50.3113 82.6294 60.8127 80.8767C63.614 80.4074 66.43 79.9747 69.2533 79.5714C70.9078 79.3499 72.4938 78.7691 73.9 77.8696C75.3062 76.9702 76.4986 75.7739 77.3933 74.3647L83.4213 64.7214C85.2436 61.7737 87.7492 59.3085 90.7259 57.5342C93.7027 55.7599 97.0631 54.7214 100.523 54.5207ZM81.5 125.5C81.5 115.289 85.5562 105.497 92.7764 98.2764C99.9965 91.0563 109.789 87 120 87C130.211 87 140.003 91.0563 147.224 98.2764C154.444 105.497 158.5 115.289 158.5 125.5C158.5 135.711 154.444 145.503 147.224 152.724C140.003 159.944 130.211 164 120 164C109.789 164 99.9965 159.944 92.7764 152.724C85.5562 145.503 81.5 135.711 81.5 125.5ZM169.5 114.5C170.959 114.5 172.358 113.921 173.389 112.889C174.421 111.858 175 110.459 175 109C175 107.541 174.421 106.142 173.389 105.111C172.358 104.079 170.959 103.5 169.5 103.5C168.041 103.5 166.642 104.079 165.611 105.111C164.579 106.142 164 107.541 164 109C164 110.459 164.579 111.858 165.611 112.889C166.642 113.921 168.041 114.5 169.5 114.5Z" fill="#428069"/>
</g>
</g>
</svg>
